name Walk5.mot
datacolumns 19
datarows 10
range 1.73700000 1.74600000
endheader

                time	   L_ground_force_vx	   L_ground_force_vy	   L_ground_force_vz	   L_ground_force_px	   L_ground_force_py	   L_ground_force_pz	   R_ground_force_vx	   R_ground_force_vy	   R_ground_force_vz	   R_ground_force_px	   R_ground_force_py	   R_ground_force_pz	   L_ground_torque_x	   L_ground_torque_y	   L_ground_torque_z	   R_ground_torque_x	   R_ground_torque_y	   R_ground_torque_z	
          1.73700000	         -7.50162416	        659.32934789	         45.26531156	         -0.22872853	          0.00000000	         -0.07830155	         -0.09180281	          0.42314390	          0.00598575	         -0.00003495	          0.00000000	         -0.00003559	          0.00000000	          0.71501711	          0.00000000	          0.00000000	          0.01308397	          0.00000000	
          1.73800000	         -7.39478083	        661.01807262	         45.33131644	         -0.22818127	          0.00000000	         -0.07829786	         -0.09056338	          0.36796722	          0.00519050	         -0.00005860	          0.00000000	         -0.00005182	          0.00000000	          0.72231372	          0.00000000	          0.00000000	          0.01458641	          0.00000000	
          1.73900000	         -7.28013124	        662.74056910	         45.39503697	         -0.22764028	          0.00000000	         -0.07829217	         -0.08883475	          0.30614357	          0.00429992	         -0.00008421	          0.00000000	         -0.00006934	          0.00000000	          0.72932886	          0.00000000	          0.00000000	          0.01616821	          0.00000000	
          1.74000000	         -7.15725473	        664.49635170	         45.45639875	         -0.22710568	          0.00000000	         -0.07828447	         -0.08657862	          0.23731062	          0.00330882	         -0.00011185	          0.00000000	         -0.00008820	          0.00000000	          0.73606743	          0.00000000	          0.00000000	          0.01783023	          0.00000000	
          1.74100000	         -7.02571995	        666.28489050	         45.51532422	         -0.22657758	          0.00000000	         -0.07827475	         -0.08375526	          0.16110129	          0.00221195	         -0.00014159	          0.00000000	         -0.00010846	          0.00000000	          0.74253362	          0.00000000	          0.00000000	          0.01957305	          0.00000000	
          1.74200000	         -6.88508455	        668.10561036	         45.57173369	         -0.22605608	          0.00000000	         -0.07826299	         -0.08032365	          0.07714487	          0.00100403	         -0.00017352	          0.00000000	         -0.00013014	          0.00000000	          0.74873045	          0.00000000	          0.00000000	          0.02139700	          0.00000000	
          1.74300000	         -6.73489469	        669.95788926	         45.62554606	         -0.22554131	          0.00000000	         -0.07824921	         -0.07624142	         -0.01493181	         -0.00032029	         -0.00020769	          0.00000000	         -0.00015330	          0.00000000	          0.75465934	          0.00000000	          0.00000000	          0.02330206	          0.00000000	
          1.74400000	         -6.57468495	        671.84105663	         45.67667890	         -0.22503337	          0.00000000	         -0.07823339	         -0.07146499	         -0.11550305	         -0.00176634	         -0.00024418	          0.00000000	         -0.00017799	          0.00000000	          0.76031952	          0.00000000	          0.00000000	          0.02528792	          0.00000000	
          1.74500000	         -6.40397872	        673.75439265	         45.72504787	         -0.22453236	          0.00000000	         -0.07821553	         -0.06594956	         -0.22494285	         -0.00333948	         -0.00028306	          0.00000000	         -0.00020423	          0.00000000	          0.76570788	          0.00000000	          0.00000000	          0.02735388	          0.00000000	
          1.74600000	         -6.22228921	        675.69712881	         45.77056567	         -0.22403837	          0.00000000	         -0.07819566	         -0.05964924	         -0.34362336	         -0.00504501	         -0.00032437	          0.00000000	         -0.00023206	          0.00000000	          0.77081896	          0.00000000	          0.00000000	          0.02949884	          0.00000000	
